<svg width="518" height="477" viewBox="0 0 518 477" fill="none" xmlns="http://www.w3.org/2000/svg">
<path fill-rule="evenodd" clip-rule="evenodd" d="M345.371 61.4453L345.174 63.3655C341.978 92.6426 329.596 110.883 304.936 108.918C303.465 108.754 301.996 108.57 300.519 108.385C299.568 116.32 298.616 124.255 297.664 132.19L296.13 144.972L294.816 155.924C282.964 154.137 271.446 150.034 260.957 143.716C264.192 120.571 267.425 97.4282 270.657 74.2851C273.89 51.1423 277.122 27.9995 280.357 4.85423C292.504 1.00657 305.202 -0.0168663 317.552 1.65745C340.916 6.05662 348.194 31.2375 345.361 61.4441L345.371 61.4453ZM305.16 69.7929L309.481 70.2947C310.071 65.3186 310.655 60.3418 311.239 55.3652L311.248 55.2934L311.257 55.2217L311.963 49.2136C312.312 46.2397 312.662 43.2658 313.015 40.2922C311.596 40.114 310.175 39.9558 308.752 39.8074C307.558 49.8061 306.354 59.7939 305.16 69.7929ZM24.8408 144.942L15.8516 129.78L19.7031 127.422L32.3311 139.623L32.8818 139.286L28.168 122.239L31.999 119.894L40.9883 135.055L39.0625 136.234L31.501 123.481L30.709 121.416L30.1797 121.74L34.8301 138.826L30.9785 141.184L18.3076 129.009L17.7578 129.346L19.2061 131.01L26.7666 143.762L24.8408 144.942ZM0.988281 138.881L13.1777 131.417L14.1729 133.095L9.05078 136.23L17.0459 149.714L15.1201 150.894L7.125 137.41L1.98242 140.558L0.988281 138.881ZM462.159 149.966C462.422 149.111 462.695 148.247 462.961 147.363C469.659 125.247 468.94 117.207 460.073 111.131C460.357 110.2 460.635 109.261 460.91 108.327L461.042 107.883C470.015 107.284 475.319 101.266 480.648 86.8833C480.899 86.2082 481.153 85.5132 481.399 84.7971C489.505 62.5261 482.065 50.6081 463.943 38.6736C453.185 31.9914 442.133 26.342 430.991 22.1321C418.203 73.2932 406.333 126.577 395.812 178.409C405.134 182.01 414.815 184.436 424.659 185.502C440.8 187.293 452.833 179.051 462.159 149.966ZM438.93 127.85C437.297 134.152 435.679 140.506 434.073 146.911C432.931 146.695 431.789 146.479 430.647 146.254C432.236 139.806 433.833 133.389 435.452 127.025L435.859 127.123L437.625 127.544L438.93 127.85ZM445.205 89.7536C446.859 83.6057 448.528 77.5097 450.208 71.4856L450.21 71.4756C451.407 71.99 452.604 72.5144 453.801 73.0388C452.111 78.9714 450.435 84.9656 448.759 91.0307L447.298 90.5051L446.382 90.175L445.205 89.7536ZM71.6895 308.262C65.6562 310.041 59.543 311.645 53.3604 313.06C38.1504 316.704 20.0693 301.4 8.20312 265.414C-3.00684 228.866 2.6543 209.417 17.3809 213.009C31.1074 215.626 44.8252 217.05 58.4316 217.357C73.6533 217.817 83.1143 231.941 94.4766 256.355C106.166 280.402 109.186 294.482 94.417 300.585C88.5771 302.81 82.6611 304.862 76.668 306.751C68.6123 294.154 61.5928 280.757 55.7295 266.639C61.835 265.858 67.8877 264.876 73.8887 263.706C73.5361 262.916 73.1875 262.122 72.8408 261.324L72.6084 260.789L72.29 260.051L71.7295 258.734C58.0615 261.077 44.1152 262.418 29.9922 262.674C30.6914 264.675 31.4131 266.669 32.1475 268.645C38.3584 268.384 44.541 267.906 50.6709 267.239C56.54 281.671 63.5869 295.365 71.6895 308.262ZM101.418 401.738C108.023 398.068 114.495 394.207 120.81 390.172C113.938 384.739 107.325 378.99 100.986 372.947C120.736 362.535 139.222 350.383 156.219 336.792C146.125 328.709 136.754 319.822 128.206 310.205C103.539 324.492 76.667 335.731 48.21 343.274C63.3447 365.163 81.2588 384.748 101.418 401.738ZM268.795 386.528C258.886 406.775 247.017 426.465 233.289 445.31C223.479 459.084 198.861 461.061 166.127 445.49C133.63 429.267 125.673 412.926 139.158 403.554C157.39 390.021 174.125 375.029 189.18 358.883C200.597 365.227 212.618 370.679 225.094 375.167C212.297 393.449 197.676 410.861 181.346 427.094C182.267 427.512 183.19 427.928 184.116 428.339L184.833 428.655C185.547 428.97 186.261 429.281 186.977 429.589C203.029 413.031 217.366 395.347 229.855 376.818C242.447 381.059 255.476 384.313 268.807 386.52L268.795 386.528ZM371.578 448.051C371.755 447.46 371.923 446.858 372.071 446.253L372.072 446.243C375.737 430.728 370.685 426.833 354.419 427.717L354.977 425.544C369.331 421.119 375.687 414.432 377.771 402.983C377.837 402.659 377.892 402.33 377.943 401.997L378 401.619L378.043 401.325C380.279 382.703 366.021 384.515 339.843 387.983C324.201 389.927 308.58 390.339 293.226 389.334C282.235 417.448 267.715 444.898 249.787 470.964C269.23 474.502 289.139 476.299 309.225 476.241C342.155 476.107 365.491 468.276 371.578 448.051ZM323.238 443.444C321.843 447.142 320.389 450.831 318.876 454.502L318.877 454.492C316.734 454.565 314.604 454.62 312.469 454.644C314.038 451.001 315.558 447.351 317.02 443.683C319.089 443.63 321.162 443.547 323.238 443.444ZM325.037 421.777C326.271 418.086 327.443 414.386 328.567 410.679L328.559 410.668C329.669 410.585 330.777 410.499 331.885 410.405C332.358 410.365 332.832 410.323 333.307 410.28L334.215 410.195C333.158 413.932 332.053 417.652 330.876 421.371C329.288 421.504 327.696 421.616 326.106 421.714L325.037 421.777ZM427.229 404.337C417.95 408.68 408.54 412.458 399.04 415.678C403.65 396.572 406.65 377.495 408.072 358.704C420.926 352.778 433.511 345.57 445.62 336.979C450.479 353.427 454.567 370.309 457.855 387.56C448.933 393.207 439.832 398.263 430.583 402.742C430.655 400.226 430.694 397.726 430.724 395.224C429.636 395.764 428.537 396.301 427.449 396.831C427.4 399.33 427.33 401.836 427.238 404.348L427.229 404.337ZM427.507 383.966C428.555 383.431 429.603 382.895 430.651 382.351C430.507 375.337 430.192 368.38 429.699 361.468C428.721 362.013 427.742 362.558 426.766 363.093C427.189 369.996 427.432 376.963 427.507 383.966ZM516.962 319.541C512.855 305.994 508.146 292.845 502.892 280.183C502.894 280.18 502.896 280.177 502.898 280.174L502.888 280.172C502.888 280.176 502.892 280.179 502.892 280.183C497.035 288.171 490.902 295.635 484.531 302.579C488.762 315.561 492.405 328.963 495.435 342.7C494.507 343.593 493.57 344.476 492.634 345.358L492.599 345.391C489.704 331.633 486.194 318.21 482.091 305.196C475.653 312.022 468.989 318.331 462.132 324.157C465.184 337.392 467.63 350.964 469.421 364.814C470.554 374.902 480.381 373.68 496.939 358.934C513.36 343.956 520.009 329.4 516.962 319.541Z" fill="#FFF20F"/>
</svg>
