<svg width="149" height="148" viewBox="0 0 149 148" fill="none" xmlns="http://www.w3.org/2000/svg">
<path fill-rule="evenodd" clip-rule="evenodd" d="M46.5293 45.7685C43.5166 42.4129 42.0102 40.8004 39.0506 37.7183L39.0628 37.706C35.2093 41.1268 33.3928 42.9025 29.9761 46.5069C32.6256 49.6788 33.9809 51.3281 36.7324 54.7082C36.2549 55.1694 36.0263 55.398 35.5611 55.8631L35.5608 55.8634C30.711 49.8625 25.8286 43.8861 20.8727 37.9668C21.24 37.5177 21.4237 37.3014 21.7993 36.8605C24.2691 39.7385 25.5509 41.2408 28.1636 44.3515C31.4823 40.7715 33.258 39.0122 37.0257 35.62C34.0824 32.6195 32.6291 31.1825 29.7919 28.476C25.2647 23.6385 18.0964 23.4342 14.194 29.0756C10.3691 34.6068 10.5653 41.2934 14.2231 46.9433C18.3381 53.0666 22.5755 59.1084 26.8906 65.097C31.4995 71.6491 39.1577 71.29 44.6113 65.9589C50.3629 60.3379 52.8569 52.39 46.5293 45.7685ZM24.0117 85.397C16.443 73.8933 9.36418 62.1364 4.10598 49.3754C5.41625 45.6484 6.19998 43.8115 8.02869 40.2437C15.528 52.6986 23.9131 64.578 32.4084 76.3634C28.8734 79.9883 27.1997 81.8008 24.0117 85.397ZM9.15605 62.2881C9.2377 62.4514 9.31935 62.6147 9.39691 62.7821C13.165 69.677 13.6428 77.7882 9.58125 84.6258L9.45649 84.8312L9.45618 84.8317C9.24388 85.1812 9.10497 85.41 8.8669 85.8136C10.8918 90.1653 12.0389 92.333 14.5986 96.5989C11.8228 100.093 10.5166 101.816 8.04695 105.184C2.87043 93.9492 0.384084 83.4457 0 71.0523C0.159076 66.6721 0.403943 64.4759 1.21617 60.1447C2.50593 53.2867 5.14304 54.242 9.15197 62.2922L9.15605 62.2881ZM5.2131 76.9593L5.25962 76.8549L5.25969 76.8547L5.25986 76.8543C5.44653 76.4351 5.55641 76.1883 5.76416 75.7388C4.71496 72.9833 4.24547 71.6076 3.41671 68.8684C3.24971 69.3613 3.16807 69.6062 3.00549 70.094L3.00509 70.0952L3.00477 70.0962L3.00469 70.0964L3.00461 70.0966L3.00453 70.0969L3.00445 70.0971C3.77198 72.8322 4.21697 74.2079 5.2131 76.9593ZM60.8567 21.0628C68.8252 25.3902 76.5937 30.1706 83.8724 35.5879C78.7208 38.6902 75.5041 40.7556 70.5158 44.1845C65.6579 39.4817 60.5795 35.0075 55.3052 30.7864C55.0245 30.9848 54.8742 31.0939 54.6215 31.2774L54.621 31.2778L54.55 31.3293C59.4324 35.9341 64.0454 40.5961 68.6258 45.503C63.8007 48.8911 61.4903 50.6218 57.049 54.1324C46.5983 41.959 35.6047 30.3531 23.3211 20.0045C26.3908 17.1307 28.0032 15.8204 31.3546 13.4569C36.1105 16.4329 40.7765 19.7845 45.1486 23.3076C45.4221 23.1075 45.5649 23.0055 45.8425 22.8096C41.7439 19.1273 37.2657 15.6043 32.6772 12.5507C36.1388 10.224 37.9472 9.18305 41.6334 7.39108C48.1078 10.7876 54.0556 15.1353 59.4483 20.0627C60.0198 20.4546 60.3015 20.6546 60.8649 21.0547L60.8567 21.0628ZM103.339 24.8077C99.1429 21.15 96.9507 19.4885 92.4725 16.5124C90.1661 17.5942 88.9823 18.1656 86.5616 19.3861C75.5763 12.2053 64.6685 6.95529 52.0382 3.28914C48.2663 4.45653 46.4049 5.16677 42.7718 6.85668C58.9211 13.6335 72.5149 22.8923 85.4639 34.6412C91.3176 31.1715 97.2939 27.9222 103.339 24.8077ZM85.8236 3.81311C83.4228 3.04268 82.2064 2.70776 79.7767 2.13369C81.8988 1.68169 82.9561 1.48993 85.0357 1.17193C80.231 0.294122 77.7898 0.0572887 72.9239 0C66.919 0.0692206 63.89 0.412032 57.9628 1.71815C75.5979 5.65387 90.0816 13.0757 104.133 24.3919C105.395 23.7474 106.659 23.1058 107.923 22.4641L107.923 22.464L107.923 22.4639L107.923 22.4638L107.923 22.4637L107.924 22.4637L107.924 22.4636L107.924 22.4635L107.924 22.4634L107.924 22.4633L107.925 22.4633L107.925 22.4632L107.925 22.4631L107.925 22.4631C111.472 20.6623 115.02 18.861 118.534 16.9954C114.599 13.6642 112.505 12.1987 108.17 9.68393L108.085 9.71845C106.229 10.4798 105.233 10.8887 103.21 11.7453C100.977 10.3858 99.8379 9.76124 97.5314 8.59776C99.6174 7.81812 100.63 7.45892 102.597 6.77318C98.0987 4.66665 95.7678 3.82157 91.0406 2.53147C88.9914 2.98861 87.9464 3.24168 85.8236 3.81311ZM40.9718 116.775C40.8207 116.583 40.6615 116.391 40.4982 116.195C36.3547 111.26 33.9829 109.859 31.0805 111.194C30.9192 110.985 30.819 110.85 30.6921 110.679L30.6921 110.679C30.6456 110.617 30.5955 110.549 30.5375 110.472C31.9948 108.116 31.5131 105.7 28.933 101.617C28.8633 101.504 28.7894 101.39 28.7146 101.274L28.7146 101.274L28.7145 101.274L28.7135 101.273C28.6616 101.192 28.6091 101.111 28.5574 101.03C24.3199 94.5306 21.5604 95.6245 18.0213 99.9801C15.4986 103.082 14.3108 104.613 12.0452 107.605C17.9279 117.309 24.4841 124.739 33.3875 131.838C35.7143 130.254 37.0369 129.47 39.976 127.821C43.9847 125.576 46.2339 123.278 40.9718 116.775ZM24.3654 111.99C23.3121 110.545 22.8059 109.81 21.8261 108.332C21.9752 108.179 22.0874 108.063 22.1997 107.947L22.2002 107.946C22.3153 107.827 22.4305 107.708 22.5854 107.549C23.5733 109.051 24.0836 109.79 25.141 111.255L24.3654 111.99ZM30.7174 118.334C31.9094 119.722 32.5136 120.391 33.7383 121.698L33.7342 121.694C33.573 121.81 33.4515 121.897 33.3301 121.983L33.3269 121.986C33.2065 122.072 33.0858 122.158 32.926 122.273C31.7013 120.991 31.1053 120.33 29.9132 118.967L29.9146 118.965L29.9169 118.964L29.9171 118.963L29.9188 118.962C30.2335 118.712 30.3927 118.586 30.7174 118.334ZM56.479 119.066L56.4741 119.068C55.0241 117.398 54.2974 116.549 52.8539 114.812C53.2866 114.559 53.507 114.428 53.9479 114.167C55.4012 115.922 56.1319 116.784 57.5934 118.482C61.3244 116.498 63.3002 115.437 67.419 113.098C56.9643 101.892 47.0647 90.3597 37.6263 78.2843C33.6749 82.1949 29.8215 86.2688 26.1354 90.4366C32.4386 102.267 39.4235 113.154 47.8167 123.605C48.9185 123.028 49.8471 122.543 50.7374 122.079L50.7445 122.075L50.7505 122.072C52.4733 121.174 54.0552 120.349 56.4741 119.068L56.479 119.074L56.479 119.066ZM46.6814 107.097L46.979 106.892L47.3299 106.65C47.4496 106.567 47.5773 106.479 47.7346 106.37C44.3463 102.002 41.0845 97.4829 37.986 92.8985C37.7873 93.0759 37.64 93.2063 37.4909 93.3382L37.4895 93.3395L37.4894 93.3396C37.3542 93.4593 37.2173 93.5805 37.039 93.7394C40.0925 98.287 43.3217 102.765 46.6773 107.092L46.6814 107.097ZM77.0349 93.0947L77.0318 93.0911L77.04 93.0911L77.0349 93.0947ZM71.3495 97.0262C73.5808 95.5047 74.7197 94.7169 77.0349 93.0947C80.2293 96.8603 81.8091 98.7177 84.9148 102.362C79.5591 105.824 74.1993 109.24 68.6558 112.391C58.8337 100.39 49.4934 88.1019 40.4918 75.4755C43.4758 72.5895 45.0188 71.1445 48.2314 68.2666C55.8735 77.9089 63.5564 87.5104 71.3495 97.0262ZM92.1802 81.9426C95.3726 85.8289 96.9279 87.7599 99.9529 91.5768C95.3361 95.1567 90.556 98.4835 85.7473 101.798C81.2197 96.498 76.7021 91.1893 72.1843 85.8804L72.1784 85.8735L72.1783 85.8733C65.9075 78.5044 59.6365 71.1352 53.3378 63.7881C56.6974 60.9266 58.42 59.5061 61.9959 56.6976C70.5892 66.2052 78.9865 75.868 87.2736 85.6409C89.2493 84.1632 90.229 83.4285 92.1761 81.9467L92.1802 81.9426ZM89.9501 59.7773C88.3212 57.8056 87.5007 56.8299 85.831 54.8827L85.8229 54.8827C88.0762 53.2907 89.1865 52.5233 91.3704 51.0334C88.1903 47.1756 86.5329 45.2651 83.2711 41.6196C77.9889 45.0893 72.7434 48.5713 67.6816 52.3594C79.1121 64.892 90.0282 77.8164 100.593 91.0838C104.867 87.7896 109.063 84.3362 113.117 80.7726C110.553 76.8046 109.214 74.8125 106.422 70.8282C104.544 72.3304 103.589 73.0815 101.646 74.6082C100.148 72.612 99.3843 71.62 97.833 69.6197L99.95 68.0042L102.829 65.8071C99.9229 61.8228 98.4206 59.8388 95.3303 55.9321C93.2117 57.4302 92.1381 58.1935 89.9501 59.7773ZM130.615 64.0931C127.921 66.8934 126.529 68.3018 123.626 71.1143C120.765 66.5789 119.193 64.3051 115.792 59.7942C115.597 59.9532 115.449 60.0725 115.301 60.1918L115.079 60.3709L114.912 60.5065L114.809 60.5902C117.866 65.4277 119.291 67.8729 121.924 72.7512C119.083 75.4535 117.613 76.8087 114.576 79.5029C105.705 65.709 96.014 52.7519 85.249 40.3785C89.9067 37.4599 92.1518 36.1455 96.4339 33.7167C102.565 30.1654 109.276 32.2884 113.249 37.9749C113.336 38.1026 113.435 38.2303 113.532 38.355L113.589 38.4284L113.624 38.4737L113.649 38.5056C117.147 43.2614 117.817 46.4292 116.045 49.4092C116.331 49.8419 116.474 50.0582 116.755 50.495C117.336 50.0566 117.745 49.7461 118.176 49.4182L118.179 49.4165L118.181 49.4149L118.184 49.4123L118.187 49.41L118.193 49.4058C118.499 49.1727 118.819 48.93 119.221 48.6255C123.34 53.6916 127.022 58.6474 130.615 64.0931ZM103.917 42.7345L103.586 42.9481C103.315 43.1227 103.102 43.2606 102.762 43.4815C105.04 46.388 106.142 47.8658 108.265 50.854L108.379 50.773C108.751 50.5106 108.969 50.3564 109.367 50.0703C107.26 47.0984 106.17 45.6247 103.917 42.7345ZM139.726 40.7844L139.725 40.7837C139.623 40.5757 139.521 40.3678 139.411 40.1598L139.415 40.1721C137.003 35.5143 134.161 34.2569 131.047 34.1874C128.749 34.1342 127.544 34.0893 125.042 33.979C124.364 33.9463 123.662 33.5463 123.18 32.9257C122.678 32.2685 122.421 31.946 121.903 31.2969L122.169 31.1241C122.388 30.9821 122.561 30.8701 122.829 30.6969C123.821 31.9256 124.307 32.5502 125.242 33.8116C128.108 31.8115 129.463 30.8481 131.998 28.95C131.1 27.8069 130.634 27.2436 129.671 26.1332C126.058 21.704 120.061 20.5077 115.081 22.8997C108.995 25.8183 111.109 32.7989 114.584 36.8607L114.64 36.9374C114.8 37.1561 114.958 37.3721 115.126 37.5914C118.952 42.6493 122.156 44.5068 125.43 44.5886C127.867 44.6499 129.039 44.6703 131.259 44.6786C131.872 44.6786 132.455 45.0827 132.815 45.7522C133.167 46.4101 133.347 46.7598 133.667 47.3823L133.667 47.3834L133.733 47.5116C133.564 47.6683 133.439 47.7854 133.312 47.904L133.311 47.9046C133.215 47.9947 133.117 48.0857 132.999 48.1955L132.905 48.2832C132.202 46.9034 131.831 46.2216 131.068 44.8622C128.361 47.2094 126.941 48.4014 123.985 50.8424C124.838 52.2916 125.247 53.0182 126.047 54.4797C129.839 61.4154 133.534 62.1054 137.669 57.4559C141.796 52.8146 142.485 46.3036 139.726 40.7844ZM82.655 134.348C86.3372 136.153 88.1905 136.969 91.8849 138.411C99.6248 141.44 98.7472 144.342 90.1421 145.975C82.1941 147.481 73.442 147.538 65.3715 146.497C58.2603 145.419 51.3246 143.267 44.8462 140.136C37.3186 137.572 39.9554 130.437 45.7357 127.824C53.1407 124.477 63.4318 123.004 71.0329 127.87C74.6375 130.127 76.4623 131.168 80.1322 133.075C74.5969 135.826 71.919 136.977 66.8735 138.977C63.073 137.356 61.187 136.442 57.4925 134.405C56.8598 134.695 56.5455 134.838 55.925 135.115C62.7587 138.83 70.0169 141.753 77.5322 143.766C78.0792 143.607 78.3913 143.512 78.8746 143.366L79.1161 143.292C75.2461 142.206 73.3152 141.557 69.4902 140.051C74.5316 138.137 77.1932 137.026 82.651 134.353L82.655 134.348ZM121.79 130.263C118.753 128.238 117.202 127.144 114.079 124.789L114.079 124.797C111.499 126.854 109.911 128.001 107.098 129.891C97.5172 123.902 88.822 117.33 80.3309 109.884C74.8445 113.198 69.3541 116.46 63.6922 119.468C76.5105 128.874 89.3859 135.904 104.441 141.039C110.687 138.272 116.54 134.631 121.79 130.263ZM120.095 79.322C125.284 86.5925 130.464 93.863 135.608 101.162C139.449 107.249 136.71 114.543 132.886 119.813C128.759 125.508 120.941 128.671 114.753 124.238C106.36 117.551 98.6278 110.456 91.149 102.765C96.0884 99.3607 100.946 95.7277 105.604 91.9436C112.05 99.5162 118.663 106.897 125.668 113.959L125.685 113.941L125.686 113.939C126.176 113.401 126.429 113.124 126.913 112.576C120.1 105.468 113.642 98.0875 107.326 90.5394C111.706 86.9676 115.993 83.204 120.099 79.3179L120.095 79.322ZM148.221 72.2122C148.217 72.0366 148.209 71.8652 148.2 71.6937L148.196 71.6978C147.976 67.3462 147.18 67.2523 144.849 71.0119C144.812 70.8854 144.786 70.7895 144.759 70.6936C144.733 70.5976 144.706 70.5017 144.669 70.3751C146.335 66.195 146.771 63.3661 146.065 60.0554C146.033 59.9012 145.996 59.743 145.96 59.5848L145.959 59.5825L145.959 59.5819C144.673 54.426 141.228 57.259 134.745 64.4107C130.79 68.8071 126.626 73.0933 122.348 77.1835L122.652 77.6249L122.652 77.626L122.652 77.6261C128.961 86.8027 135.274 95.987 141.188 105.42C143.723 100.142 144.707 97.395 146.123 91.8147C147.654 85.4343 148.225 78.764 148.221 72.2122ZM138.897 76.4655C138.236 75.0612 137.889 74.355 137.179 72.9344C137.632 72.3343 137.852 72.0322 138.289 71.4322C138.954 72.8405 139.281 73.5427 139.901 74.9388L139.749 75.1717L139.748 75.1738C139.444 75.6394 139.25 75.9368 138.897 76.4655ZM142.755 81.801C143.282 83.1686 143.531 83.8503 144.008 85.2015H144.017C143.755 85.8301 143.625 86.1404 143.355 86.769C142.829 85.4178 142.551 84.732 141.979 83.3604C142.294 82.7358 142.449 82.4256 142.755 81.801ZM128.038 135.48H127.441V133.161H126.676V132.663H128.803V133.161H128.038V135.48ZM130.271 135.48L129.593 133.27H129.576C129.6 133.72 129.613 134.02 129.613 134.17V135.48H129.079V132.663H129.892L130.558 134.817H130.57L131.277 132.663H132.09V135.48H131.533V134.147C131.533 134.084 131.534 134.011 131.535 133.929C131.538 133.847 131.547 133.629 131.562 133.274H131.545L130.819 135.48H130.271ZM134.193 133.902C134.193 136.571 132.029 138.735 129.36 138.735C126.691 138.735 124.527 136.571 124.527 133.902C124.527 131.233 126.691 129.069 129.36 129.069C132.029 129.069 134.193 131.233 134.193 133.902ZM134.686 133.902C134.686 136.844 132.302 139.228 129.36 139.228C126.418 139.228 124.034 136.844 124.034 133.902C124.034 130.96 126.418 128.576 129.36 128.576C132.302 128.576 134.686 130.96 134.686 133.902Z" fill="white"/>
</svg>
