<svg width="563" height="564" viewBox="0 0 563 564" fill="none" xmlns="http://www.w3.org/2000/svg">
<path fill-rule="evenodd" clip-rule="evenodd" d="M195.099 174.442C185.676 161.82 180.943 155.736 171.619 144.082L171.665 144.044C157.183 154.729 150.304 160.334 137.284 171.796C145.501 183.665 149.696 189.829 158.203 202.454C156.396 203.908 155.529 204.631 153.763 206.103C138.783 183.701 123.681 161.373 108.306 139.221C109.726 137.775 110.433 137.08 111.878 135.664C119.563 146.454 123.549 152.084 131.657 163.728C144.33 152.32 151.061 146.759 165.236 136.145C155.942 124.781 151.34 119.324 142.323 109.015C128.098 90.7614 103.226 87.7926 87.8741 106.188C72.8266 124.224 71.4026 147.546 82.347 168.352C94.7328 190.949 107.57 213.301 120.694 235.493C134.663 259.737 161.416 260.9 182.067 244.073C203.845 226.331 215.024 199.469 195.099 174.442ZM104.286 305.206C81.5809 262.805 60.6596 219.677 46.3879 173.63C52.1198 161.078 55.4248 154.934 62.91 143.1C85.0741 188.788 110.501 232.753 136.341 276.426C122.902 287.923 116.509 293.7 104.286 305.206ZM59.8917 220.137C60.1243 220.731 60.3569 221.325 60.574 221.931C71.5099 247.103 70.6171 275.47 54.3345 297.976L53.8358 298.652C52.9865 299.802 52.4311 300.554 51.4753 301.884C57.1484 317.659 60.4562 325.561 68.0165 341.207C57.2599 352.488 52.1733 358.069 42.5215 369.006C28.0529 328.296 22.7124 290.974 25.2802 247.741C27.2134 232.554 28.757 224.991 32.9467 210.18C39.5937 186.73 48.4663 190.884 59.8762 220.15L59.8917 220.137ZM41.5541 269.931L41.7485 269.583L41.7486 269.583C42.5308 268.182 42.9908 267.358 43.8555 265.859C41.0737 255.943 39.8739 251.01 37.8537 241.22C37.116 242.886 36.7548 243.712 36.0326 245.364C37.841 255.121 38.9556 260.046 41.5541 269.931ZM252.721 93.0165C279.077 110.58 304.595 129.656 328.208 150.794C309.311 159.963 297.47 166.134 279.038 176.491C263.62 158.601 247.364 141.438 230.346 125.093C229.306 125.695 228.749 126.027 227.81 126.587L227.809 126.588L227.548 126.743C243.082 144.3 257.66 161.97 272.048 180.482C254.196 190.748 245.614 196.041 229.058 206.854C196.539 161.215 161.952 117.38 122.481 77.5112C134.065 68.4814 140.087 64.4312 152.49 57.2651C168.096 69.1158 183.271 82.2445 197.371 95.8771C198.385 95.2675 198.914 94.9575 199.942 94.3633C186.844 80.2631 172.376 66.5971 157.376 54.5294C170.15 47.526 176.769 44.4747 190.156 39.4022C211.608 53.257 230.929 70.2546 248.136 89.0936C250.001 90.637 250.918 91.4215 252.752 92.9907L252.721 93.0165ZM399.324 119.424C385.877 105.378 378.775 98.9082 364.134 87.1451C355.77 90.1814 351.472 91.7964 342.667 95.2796C306.715 66.8397 270.425 45.141 227.644 28.4093C214.155 31.2821 207.456 33.1664 194.285 37.9006C248.328 66.5618 292.7 103.052 334.044 148.001C355.5 137.775 377.312 128.354 399.324 119.424ZM345.002 40.873C336.893 37.4368 332.767 35.8885 324.496 33.1262C332.021 32.2223 335.759 31.8883 343.093 31.4371C326.656 26.8701 318.239 25.2773 301.33 23.5452C280.419 21.8945 269.775 22.1329 248.744 24.8093C308.851 44.0553 356.896 74.4354 402.211 118.226C406.798 116.385 411.389 114.554 415.982 112.722L415.983 112.721L415.985 112.721L415.987 112.72L415.989 112.719L415.991 112.719L415.992 112.718L415.994 112.717L415.996 112.716L415.998 112.716L415.999 112.715L416.001 112.714C428.91 107.566 441.822 102.417 454.639 97.0332C441.999 84.2057 435.175 78.4479 420.886 68.3344L420.577 68.4298L420.574 68.4308L420.571 68.4314C413.883 70.4931 410.287 71.6015 402.984 73.9427C395.644 68.5104 391.879 65.9789 384.222 61.205C391.724 59.15 395.359 58.2194 402.419 56.4537C387.434 47.7088 379.592 44.0348 363.554 38.058C356.281 39.0027 352.566 39.5539 345.002 40.873ZM153.398 419.692C152.933 418.977 152.44 418.259 151.933 417.526C139.074 399.052 131.265 393.434 120.748 397.163C120.252 396.384 119.946 395.884 119.559 395.249C119.417 395.017 119.264 394.767 119.087 394.478C124.898 386.744 123.983 378.185 116.294 363.172C116.087 362.758 115.866 362.337 115.643 361.911L115.643 361.911C115.486 361.612 115.328 361.312 115.173 361.009C102.479 337.066 92.5351 340.003 78.8518 354.039C69.0989 364.037 64.4846 368.988 55.6611 378.683C73.0684 414.291 93.5347 442.202 122.27 469.702C130.863 464.925 135.711 462.615 146.455 457.804C161.107 451.257 169.655 443.971 153.398 419.692ZM97.1374 397.816C93.9287 392.457 92.3993 389.742 89.4565 384.292C90.0231 383.807 90.4503 383.438 90.8774 383.069C91.3161 382.689 91.7548 382.31 92.3446 381.805C95.308 387.342 96.8504 390.073 100.067 395.504L97.1374 397.816ZM117.236 421.885C120.945 427.089 122.836 429.608 126.685 434.538L126.672 434.523C126.083 434.871 125.638 435.132 125.195 435.391L125.187 435.397L125.175 435.404C124.725 435.667 124.275 435.931 123.678 436.285C119.821 431.44 117.956 428.951 114.239 423.833L114.245 423.829L114.255 423.822L114.264 423.816L114.271 423.812L114.272 423.811L114.283 423.804L114.287 423.801L114.288 423.8L114.295 423.796C115.445 423.04 116.039 422.65 117.236 421.885ZM206.623 432.545L206.605 432.553C202.087 426.286 199.827 423.104 195.352 416.606C196.937 415.862 197.745 415.477 199.361 414.707C203.864 421.271 206.134 424.498 210.683 430.866C224.287 425.14 231.494 422.07 246.559 415.231C213.721 372.957 182.916 329.722 153.887 284.743C138.91 297.102 124.222 310.06 110.087 323.397C128.287 366.536 149.155 406.609 175.06 445.607C179.059 443.952 182.431 442.564 185.663 441.234L185.707 441.216L185.739 441.203L185.748 441.199L185.75 441.199L185.766 441.192L185.776 441.188C192.041 438.61 197.8 436.24 206.605 432.553L206.62 432.574L206.623 432.545ZM176.311 387.823L177.421 387.197C178.334 386.683 179.055 386.277 180.204 385.627C169.793 369.365 159.87 352.617 150.535 335.694C149.788 336.248 149.235 336.655 148.675 337.067L148.674 337.067C148.164 337.443 147.649 337.822 146.976 338.321C156.166 355.102 165.988 371.697 176.298 387.807L176.311 387.823ZM286.315 348.678L286.305 348.665L286.334 348.668L286.315 348.678ZM265.299 360.564C273.54 355.974 277.75 353.592 286.315 348.678C296.241 362.784 301.151 369.742 310.807 383.398C291.086 393.752 271.365 403.949 251.088 413.165C220.702 368.321 192.08 322.635 164.745 275.877C176.034 266.777 181.857 262.237 193.939 253.238C217.485 289.187 241.187 325.007 265.299 360.564ZM342.511 314.656C352.392 329.181 357.194 336.388 366.515 350.618C349.327 361.617 331.651 371.684 313.879 381.7C299.819 361.866 285.797 342.004 271.774 322.143L271.767 322.133L271.758 322.12L271.748 322.106L271.739 322.093L271.73 322.08L271.72 322.067L271.711 322.054C252.213 294.437 232.714 266.818 213.111 239.268C225.699 230.372 232.139 225.973 245.463 217.33C272.361 253.11 298.528 289.369 324.278 325.976C331.616 321.458 335.255 319.21 342.496 314.669L342.511 314.656ZM341.736 236.845C336.69 229.473 334.143 225.82 328.949 218.521L328.92 218.518C337.26 213.69 341.364 211.37 349.431 206.875C339.583 192.454 334.42 185.286 324.221 171.577C304.754 181.983 285.41 192.443 266.608 204.026C302.423 251.223 336.325 299.621 368.898 349.101C384.803 338.988 400.488 328.297 415.711 317.177C408.043 302.567 404.013 295.215 395.554 280.475C388.549 285.11 384.99 287.421 377.749 292.12C373.166 284.704 370.823 281.013 366.057 273.566L369.464 271.423L373.849 268.664L377.584 266.314L384.639 261.877C375.783 247.102 371.182 239.727 361.662 225.163C353.821 229.707 349.846 232.024 341.736 236.845ZM481.826 264.67C471.572 273.563 466.286 278.023 455.304 286.893C446.778 270.214 442.027 261.809 431.618 245.047C430.886 245.539 430.334 245.907 429.781 246.276C429.426 246.514 429.07 246.751 428.667 247.021L428.353 247.232L427.945 247.506C437.058 265.297 441.244 274.251 448.867 292.051C438.133 300.556 432.594 304.808 421.18 313.223C394.666 262.445 365.035 214.319 331.485 167.885C348.607 159.2 356.831 155.335 372.492 148.235C394.939 137.812 417.616 147.311 429.642 168.344C429.905 168.815 430.21 169.291 430.509 169.755L430.509 169.756C430.631 169.945 430.751 170.132 430.867 170.316C441.539 187.962 442.87 199.192 435.769 209L435.771 209.005C436.627 210.597 437.056 211.395 437.898 213.002C440.059 211.657 441.58 210.705 443.187 209.699L443.196 209.693L443.741 209.352C444.732 208.731 445.786 208.072 447.063 207.275C459.796 226.195 471.044 244.595 481.826 264.67ZM395.681 181.961C395.227 182.199 394.835 182.405 394.47 182.596C393.471 183.12 392.683 183.533 391.427 184.196C398.436 195.024 401.805 200.512 408.248 211.576L408.67 211.332L408.682 211.324C410.051 210.532 410.859 210.064 412.329 209.197C405.937 198.195 402.61 192.725 395.681 181.961ZM520.862 186.453C520.573 185.697 520.284 184.94 519.966 184.181L519.976 184.225C513.05 167.262 503.563 161.993 492.75 160.77C484.771 159.862 480.596 159.326 471.926 158.154C469.579 157.827 467.263 156.214 465.783 153.904C464.243 151.459 463.45 150.256 461.851 147.835C462.216 147.643 462.534 147.475 462.829 147.32C463.636 146.894 464.272 146.558 465.263 146.04C468.327 150.627 469.82 152.952 472.675 157.635C483.273 151.58 488.291 148.655 497.708 142.851C494.943 138.592 493.502 136.486 490.5 132.319C479.328 115.773 458.844 109.723 440.766 116.475C418.674 124.711 423.832 149.66 434.637 164.884L434.81 165.171C435.298 165.982 435.781 166.782 436.296 167.597C448.009 186.397 458.571 193.868 469.934 195.183C478.393 196.164 482.462 196.605 490.184 197.333C492.314 197.526 494.218 199.115 495.257 201.557C496.274 203.959 496.79 205.232 497.709 207.501L497.898 207.967C497.753 208.079 497.617 208.184 497.488 208.284L497.354 208.387L497.146 208.548C496.846 208.781 496.575 208.991 496.303 209.204L495.992 209.445L495.658 209.704C495.392 209.911 495.104 210.134 494.772 210.39C492.764 205.369 491.687 202.881 489.459 197.911C479.305 205.224 473.988 208.923 462.938 216.483C465.45 221.793 466.641 224.45 468.964 229.786C479.972 255.107 492.606 258.671 508.456 243.8C524.274 228.954 528.724 206.522 520.862 186.453ZM291.861 497.961C304.102 505.398 310.291 508.822 322.689 514.999C348.659 527.974 344.692 537.794 314.243 540.763C286.121 543.498 255.658 540.939 227.911 534.775C203.514 528.786 180.065 519.117 158.515 506.184C133.137 494.894 144.557 470.903 165.487 463.636C192.301 454.325 228.564 452.441 253.473 471.763C265.301 480.752 271.32 484.948 283.486 492.736C263.364 500.562 253.686 503.723 235.505 509.092C222.795 502.256 216.522 498.481 204.312 490.231C202.02 491.04 200.881 491.438 198.636 492.208C221.237 507.284 245.565 519.738 271.074 529.107C273.024 528.728 274.139 528.497 275.862 528.139L275.863 528.139L276.733 527.959C263.613 522.962 257.101 520.096 244.269 513.651C262.409 508.579 272.018 505.555 291.846 497.974L291.861 497.961ZM429.287 496.079C419.359 488.078 414.307 483.784 404.186 474.606L404.183 474.634C394.561 480.978 388.676 484.468 378.297 490.157C346.854 466.306 318.677 440.704 291.485 412.127C271.356 421.929 251.229 431.545 230.586 440.226C272.213 476.983 314.788 505.493 365.541 528.101C388.14 520.441 409.649 509.619 429.287 496.079ZM439.435 318.335C455.194 345.261 470.925 372.184 486.519 399.195C497.965 421.578 486.139 446.091 471.174 463.219C455.024 481.728 426.834 490.27 406.702 472.899C379.612 446.994 354.951 419.877 331.358 390.767C349.612 380.48 367.655 369.373 385.049 357.676C405.087 386.049 425.767 413.807 447.911 440.581L447.971 440.527L447.973 440.524C449.852 438.803 450.819 437.917 452.678 436.16C431.215 409.29 411.075 381.581 391.484 353.334C407.845 342.289 423.941 330.547 439.45 318.322L439.435 318.335ZM539.518 302.463C539.559 301.851 539.584 301.252 539.61 300.653L539.594 300.666C540.198 285.459 537.458 284.881 528.166 297.226C528.078 296.774 528.016 296.432 527.954 296.09C527.892 295.748 527.83 295.406 527.742 294.954C534.852 280.937 537.262 271.234 535.848 259.495C535.783 258.945 535.706 258.379 535.628 257.814C532.778 239.474 519.901 248.243 495.099 271.08C479.954 285.127 464.12 298.726 447.95 311.607L448.866 313.237C467.92 347.148 486.99 381.088 504.593 415.768C515.074 398.205 519.361 388.959 526.046 369.993C533.38 348.28 537.469 325.256 539.518 302.463ZM505.744 314.322C503.886 309.229 502.902 306.663 500.878 301.497C502.643 299.552 503.505 298.571 505.214 296.621C507.085 301.73 508 304.275 509.719 309.328L509.115 310.092C507.908 311.618 507.139 312.592 505.744 314.322ZM517.484 334.098C518.885 339.021 519.537 341.471 520.773 346.322L520.801 346.324C519.694 348.429 519.142 349.467 518.007 351.569C516.6 346.703 515.851 344.229 514.295 339.278C515.585 337.204 516.222 336.174 517.484 334.098Z" fill="#FFF20F"/>
<path fill-rule="evenodd" clip-rule="evenodd" d="M498.91 478.504C507.006 479.237 514.163 473.268 514.896 465.172C515.629 457.077 509.66 449.919 501.565 449.186C493.469 448.453 486.312 454.422 485.579 462.518C484.846 470.613 490.814 477.771 498.91 478.504ZM498.803 479.685C507.551 480.477 515.285 474.027 516.077 465.279C516.869 456.531 510.42 448.797 501.672 448.005C492.923 447.213 485.189 453.663 484.397 462.411C483.605 471.159 490.055 478.893 498.803 479.685Z" fill="#FFF20F"/>
<path d="M496.385 460.326L495.711 467.77L494.491 467.66L495.165 460.216L492.736 459.996L492.836 458.897L498.913 459.448L498.813 460.546L496.385 460.326Z" fill="#FFF20F"/>
<path d="M506.555 468.752L507.185 461.796L507.161 461.794L504.017 468.522L502.796 468.412L500.925 461.229L500.9 461.227L500.27 468.183L499.111 468.078L499.885 459.536L501.605 459.691L503.523 467.05L503.547 467.053L506.767 460.159L508.488 460.315L507.714 468.857L506.555 468.752Z" fill="#FFF20F"/>
</svg>
