<svg width="110" height="51" viewBox="0 0 110 51" fill="none" xmlns="http://www.w3.org/2000/svg">
<path fill-rule="evenodd" clip-rule="evenodd" d="M37.7496 0.0340428C38.2831 0.0340428 38.7156 0.46655 38.7156 1.00007V50.0001C38.7156 50.5336 38.2831 50.9661 37.7496 50.9661C37.2161 50.9661 36.7836 50.5336 36.7836 50.0001V1.00007C36.7836 0.46655 37.2161 0.0340428 37.7496 0.0340428Z" fill="white"/>
<path fill-rule="evenodd" clip-rule="evenodd" d="M70.8119 25.5001C70.8119 24.9666 71.2444 24.5341 71.778 24.5341H108.528C109.061 24.5341 109.494 24.9666 109.494 25.5001C109.494 26.0337 109.061 26.4662 108.528 26.4662H71.778C71.2444 26.4662 70.8119 26.0337 70.8119 25.5001Z" fill="white"/>
<path fill-rule="evenodd" clip-rule="evenodd" d="M71.7341 0.0340424C72.2676 0.0340424 72.7001 0.466549 72.7001 1.00007V49.9525C72.7001 50.486 72.2676 50.9185 71.7341 50.9185C71.2006 50.9185 70.7681 50.486 70.7681 49.9525V1.00007C70.7681 0.466549 71.2006 0.0340424 71.7341 0.0340424Z" fill="white"/>
<path fill-rule="evenodd" clip-rule="evenodd" d="M0.0339355 25.5001C0.0339355 24.9666 0.466442 24.5341 0.999967 24.5341H37.75C38.2835 24.5341 38.716 24.9666 38.716 25.5001C38.716 26.0337 38.2835 26.4662 37.75 26.4662H0.999967C0.466442 26.4662 0.0339355 26.0337 0.0339355 25.5001Z" fill="white"/>
<path fill-rule="evenodd" clip-rule="evenodd" d="M0.0339355 0.999997C0.0339355 0.466473 0.466442 0.0339661 0.999967 0.0339661H54.7182C54.7335 0.0339661 54.7487 0.0343211 54.7638 0.0350233C54.779 0.0343211 54.7942 0.0339661 54.8094 0.0339661H108.528C109.061 0.0339661 109.494 0.466473 109.494 0.999997V50C109.494 50.5335 109.061 50.966 108.528 50.966H54.8132C54.798 50.966 54.7828 50.9657 54.7676 50.965C54.7525 50.9657 54.7373 50.966 54.722 50.966H0.999967C0.466442 50.966 0.0339355 50.5335 0.0339355 50V0.999997ZM54.7676 49.035C54.7828 49.0343 54.798 49.034 54.8132 49.034H107.562V1.96603H54.8094C54.7942 1.96603 54.779 1.96567 54.7638 1.96497C54.7487 1.96567 54.7335 1.96603 54.7182 1.96603H1.966V49.034H54.722C54.7373 49.034 54.7525 49.0343 54.7676 49.035Z" fill="white"/>
<path d="M54.5059 48.0118C42.0762 48.0118 32 37.9356 32 25.5059C32 13.0763 42.0762 3.00007 54.5059 3.00008C66.9355 3.00008 77.0117 13.0763 77.0117 25.5059C77.0117 37.9356 66.9355 48.0118 54.5059 48.0118Z" fill="#FFF20F"/>
<path fill-rule="evenodd" clip-rule="evenodd" d="M33.587 25.5059C33.587 37.0591 42.9527 46.4248 54.5059 46.4248C66.059 46.4248 75.4247 37.0591 75.4247 25.5059C75.4247 13.9528 66.059 4.58706 54.5059 4.58706C42.9527 4.58706 33.587 13.9528 33.587 25.5059ZM32 25.5059C32 37.9356 42.0762 48.0118 54.5059 48.0118C66.9355 48.0118 77.0117 37.9356 77.0117 25.5059C77.0117 13.0763 66.9355 3.00008 54.5059 3.00008C42.0762 3.00007 32 13.0763 32 25.5059Z" fill="black"/>
<path fill-rule="evenodd" clip-rule="evenodd" d="M54.5059 46.5628C42.8765 46.5628 33.449 37.1353 33.449 25.5059C33.449 13.8765 42.8765 4.44905 54.5059 4.44905C66.1353 4.44905 75.5627 13.8765 75.5627 25.5059C75.5627 37.1353 66.1353 46.5628 54.5059 46.5628ZM32.138 25.5059C32.138 37.8594 42.1524 47.8738 54.5059 47.8738C66.8593 47.8738 76.8737 37.8594 76.8737 25.5059C76.8737 13.1525 66.8593 3.13808 54.5059 3.13808C42.1524 3.13808 32.138 13.1525 32.138 25.5059ZM54.5059 46.4248C42.9527 46.4248 33.587 37.0591 33.587 25.5059C33.587 13.9528 42.9527 4.58706 54.5059 4.58706C66.059 4.58706 75.4247 13.9528 75.4247 25.5059C75.4247 37.0591 66.059 46.4248 54.5059 46.4248ZM54.5059 48.0118C42.0762 48.0118 32 37.9356 32 25.5059C32 13.0763 42.0762 3.00007 54.5059 3.00008C66.9355 3.00008 77.0117 13.0763 77.0117 25.5059C77.0117 37.9356 66.9355 48.0118 54.5059 48.0118Z" fill="black"/>
<path fill-rule="evenodd" clip-rule="evenodd" d="M47.2808 28.5122C47.7097 28.4219 48.1305 28.6964 48.2208 29.1252C49.4121 34.7848 54.1188 38.9473 59.6732 38.9473C62.4213 38.9473 64.9528 37.9331 66.9597 36.2238C67.2933 35.9396 67.7941 35.9797 68.0783 36.3133C68.3624 36.647 68.3223 37.1478 67.9887 37.4319C65.7139 39.3694 62.823 40.5343 59.6732 40.5343C53.2824 40.5343 47.9953 35.7586 46.6678 29.4521C46.5775 29.0232 46.852 28.6024 47.2808 28.5122Z" fill="black"/>
<path fill-rule="evenodd" clip-rule="evenodd" d="M61.992 19.4186L61.992 19.4184C61.8797 18.6843 61.6433 18.4902 61.6077 18.4673C61.5952 18.4593 61.564 18.4395 61.4729 18.4395C61.3688 18.4394 61.1721 18.4668 60.8702 18.601C60.4148 18.8034 60.0141 19.2219 59.6706 19.9222C59.3247 20.6275 59.1015 21.4908 58.9445 22.3644C58.8114 23.1045 58.8026 24.1659 59.0187 25.0606C59.2514 26.0242 59.6052 26.3033 59.7856 26.3627C60.0905 26.4629 60.2531 26.4407 60.3285 26.4206C60.4071 26.3997 60.5192 26.3464 60.6664 26.1887C61.0042 25.8268 61.3365 25.1188 61.5868 24.0942C61.8263 23.1135 61.9463 22.0317 61.994 21.1145C62.0175 20.6602 62.0227 20.2596 62.0176 19.9485C62.0151 19.7928 62.0101 19.6646 62.0041 19.5668C61.9982 19.4696 61.9927 19.4245 61.9921 19.4191C61.992 19.4186 61.992 19.4184 61.992 19.4186ZM63.5607 19.1785C63.2636 17.2355 62.049 16.3403 60.2256 17.1508C58.4023 17.9613 57.717 20.223 57.3825 22.0836C57.0481 23.9441 57.3306 27.2262 59.29 27.8703C63.6654 29.3084 63.7268 20.264 63.5607 19.1785Z" fill="black"/>
<path fill-rule="evenodd" clip-rule="evenodd" d="M71.4556 21.557C71.4142 21.1242 71.2746 20.4032 70.847 19.8437C70.6161 19.5416 70.2876 19.2699 69.8406 19.1429C69.3959 19.0165 68.9099 19.0548 68.4 19.2357C67.5815 19.5262 67.2369 20.3404 67.0383 21.085C66.8443 21.8122 66.7191 22.7658 66.5782 23.8376C66.5671 23.9228 66.5558 24.0087 66.5443 24.0953C66.4255 24.9961 66.4086 25.8801 66.59 26.6498C66.7747 27.4339 67.178 28.1417 67.9182 28.5802C68.3208 28.8188 68.7623 28.9366 69.2134 28.851C69.6589 28.7664 70.0003 28.5046 70.2504 28.2073C70.7274 27.6403 71.0098 26.782 71.1873 25.9671C71.3712 25.1231 71.4672 24.203 71.5037 23.4142C71.5385 22.6597 71.5216 21.9678 71.4556 21.557ZM69.4421 20.5448C69.3545 20.5199 69.1844 20.5039 68.8874 20.6092C68.8211 20.6328 68.6358 20.7506 68.4465 21.4606C68.2782 22.0915 68.1649 22.9522 68.0168 24.0765C68.0078 24.1454 67.9986 24.2152 67.9892 24.286C67.8815 25.1029 67.8845 25.789 68.0085 26.3156C68.1292 26.8277 68.3507 27.1425 68.6611 27.3264C68.845 27.4354 68.9267 27.4219 68.9414 27.4191C68.9616 27.4153 69.0285 27.3958 69.1351 27.2691C69.3713 26.9884 69.5952 26.4284 69.7633 25.6568C69.9251 24.9143 70.014 24.0794 70.0478 23.347C70.0823 22.5996 70.0568 22.02 70.0143 21.7745L70.0091 21.7445L70.0064 21.7141C69.9772 21.3819 69.8758 20.9731 69.689 20.7287C69.6078 20.6224 69.5276 20.5691 69.4421 20.5448Z" fill="black"/>
<path fill-rule="evenodd" clip-rule="evenodd" d="M51.6713 26.649C51.8493 27.0495 51.6689 27.5184 51.2684 27.6964C50.8573 27.8791 50.4613 28.0452 50.0797 28.2053C48.4384 28.8938 47.0628 29.4709 45.8833 30.7815C45.5901 31.1072 45.0884 31.1336 44.7627 30.8405C44.4369 30.5473 44.4105 30.0456 44.7037 29.7199C46.1432 28.1204 47.9068 27.3865 49.5741 26.6927C49.9298 26.5447 50.2811 26.3985 50.6239 26.2462C51.0244 26.0682 51.4933 26.2485 51.6713 26.649Z" fill="black"/>
<path fill-rule="evenodd" clip-rule="evenodd" d="M43.6533 19.5281C45.4072 19.5281 46.8291 18.1062 46.8291 16.3523C46.8291 14.5984 45.4072 13.1765 43.6533 13.1765C41.8993 13.1765 40.4775 14.5984 40.4775 16.3523C40.4775 18.1062 41.8993 19.5281 43.6533 19.5281ZM43.6533 20.0613C45.7017 20.0613 47.3622 18.4007 47.3622 16.3523C47.3622 14.3039 45.7017 12.6433 43.6533 12.6433C41.6049 12.6433 39.9443 14.3039 39.9443 16.3523C39.9443 18.4007 41.6049 20.0613 43.6533 20.0613Z" fill="black"/>
<path d="M66.3451 35.6122C66.1436 35.2284 66.2711 34.7426 66.63 34.5271C66.8478 34.3963 67.047 34.4219 67.2477 34.5318C67.5378 34.6907 67.7343 34.9735 67.9112 35.253V35.253C68.2243 35.7478 68.4959 36.2676 68.7234 36.8071L68.8923 37.2074C69.0224 37.6833 68.9662 38.077 68.6074 38.2925C68.2485 38.508 67.7942 38.3716 67.5927 37.9879V37.9879C67.2649 37.189 66.8652 36.4217 66.3984 35.6952L66.3451 35.6122Z" fill="black"/>
<path d="M43.3394 15.7883C43.3432 15.8322 43.3256 15.875 43.2944 15.909C43.2667 15.9406 43.2288 15.9609 43.1891 15.9594C43.1114 15.9627 43.0331 15.9691 42.9418 15.9791C42.8979 15.9829 42.8529 15.9926 42.8114 15.9999L42.799 16.0006C42.754 16.0103 42.7125 16.0177 42.6704 16.028L42.5999 16.042L42.5936 16.0901C42.5556 16.5233 42.5043 16.9138 42.4316 17.2879C42.4241 17.3265 42.4012 17.3652 42.3657 17.3891C42.3273 17.4124 42.2822 17.4222 42.2437 17.4147C42.2407 17.4141 42.2407 17.4141 42.2407 17.4141C42.1546 17.3973 42.0978 17.3093 42.1145 17.2232C42.1739 16.902 42.2225 16.5725 42.2592 16.2099L42.2687 16.1132L42.1775 16.1386C42.0863 16.164 41.9951 16.1894 41.9069 16.2153L41.8518 16.2293C41.7635 16.2553 41.6737 16.2101 41.6472 16.1248C41.6333 16.0851 41.6396 16.037 41.6595 15.9978C41.6795 15.9585 41.712 15.934 41.7481 15.9226C41.8719 15.8881 41.9957 15.8536 42.1159 15.8216L42.1811 15.8034C42.2492 15.7859 42.3232 15.7694 42.3908 15.7548C42.4228 15.7487 42.4518 15.7421 42.4838 15.736C42.5999 15.7092 42.7208 15.6896 42.8293 15.6706C42.9407 15.6523 43.0509 15.6398 43.1684 15.638C43.1808 15.6373 43.1933 15.6367 43.2051 15.639C43.2823 15.654 43.3349 15.7166 43.3394 15.7883Z" fill="black"/>
<path fill-rule="evenodd" clip-rule="evenodd" d="M42.2406 17.4141C42.1545 17.3974 42.0977 17.3093 42.1145 17.2232C42.1738 16.902 42.2225 16.5725 42.2591 16.2099L42.2687 16.1132L42.1775 16.1386C42.0863 16.164 41.9951 16.1894 41.9068 16.2153L41.8517 16.2293C41.7635 16.2553 41.6737 16.2101 41.6471 16.1248C41.6333 16.0851 41.6395 16.0371 41.6595 15.9978C41.6794 15.9585 41.7119 15.9341 41.7481 15.9226C41.8718 15.8881 41.9956 15.8536 42.1159 15.8216L42.181 15.8034C42.2491 15.7859 42.3232 15.7694 42.3907 15.7548C42.4067 15.7518 42.422 15.7486 42.4372 15.7454C42.4525 15.7422 42.4678 15.739 42.4838 15.736C42.5815 15.7135 42.6826 15.696 42.7768 15.6797C42.7945 15.6767 42.812 15.6737 42.8292 15.6706C42.9406 15.6523 43.0509 15.6398 43.1683 15.638C43.1808 15.6373 43.1932 15.6367 43.2051 15.639C43.2823 15.654 43.3348 15.7166 43.3394 15.7883C43.3431 15.8322 43.3256 15.875 43.2943 15.909C43.2666 15.9406 43.2288 15.9609 43.189 15.9594C43.1113 15.9627 43.0331 15.9691 42.9418 15.9791C42.9081 15.982 42.8737 15.9884 42.8408 15.9945C42.8308 15.9964 42.821 15.9982 42.8114 15.9999L42.7989 16.0006C42.7823 16.0042 42.7661 16.0075 42.7502 16.0107C42.7232 16.0162 42.6969 16.0215 42.6704 16.028L42.5999 16.042L42.5936 16.0901C42.5556 16.5233 42.5043 16.9138 42.4316 17.2879C42.4241 17.3265 42.4011 17.3652 42.3657 17.3891C42.3272 17.4124 42.2822 17.4222 42.2436 17.4147L42.2406 17.4141ZM42.6704 16.1076C42.6323 16.5386 42.581 16.9286 42.5082 17.3028C42.4972 17.3596 42.4637 17.4172 42.4093 17.4538L42.4078 17.4549L42.4062 17.4558C42.3543 17.4874 42.2897 17.5032 42.2287 17.4913L42.2258 17.4907C42.0957 17.4654 42.0134 17.3351 42.0378 17.2087C42.0958 16.8945 42.1435 16.5726 42.1797 16.219C42.0947 16.2427 42.0105 16.2662 41.9289 16.2902L41.9274 16.2907L41.8722 16.3046C41.7469 16.3407 41.6134 16.2768 41.573 16.1492C41.5513 16.0859 41.5626 16.0162 41.5899 15.9624C41.6201 15.903 41.67 15.8654 41.7244 15.8482L41.7258 15.8477L41.7274 15.8473C41.8508 15.8129 41.9748 15.7784 42.0953 15.7462L42.1608 15.728L42.1615 15.7278C42.2312 15.7098 42.3066 15.6932 42.3742 15.6785L42.3752 15.6783L42.3761 15.6782C42.3913 15.6753 42.4059 15.6722 42.4212 15.669L42.4215 15.6689C42.4362 15.6659 42.4515 15.6626 42.4677 15.6595C42.5672 15.6367 42.6703 15.6189 42.764 15.6027C42.7816 15.5997 42.7989 15.5967 42.8158 15.5937L42.8165 15.5936C42.9301 15.5749 43.0438 15.5619 43.1656 15.5599C43.1658 15.5599 43.166 15.5599 43.1662 15.5599C43.1774 15.5593 43.1984 15.5581 43.22 15.5623C43.3316 15.584 43.41 15.6755 43.4172 15.7825C43.4229 15.8515 43.395 15.9146 43.3524 15.9612C43.3141 16.0044 43.2568 16.0388 43.1896 16.0375C43.1149 16.0408 43.0392 16.047 42.9503 16.0567L42.9494 16.0568L42.9485 16.0569C42.919 16.0594 42.8898 16.0649 42.8578 16.0708C42.8472 16.0728 42.8363 16.0748 42.825 16.0768L42.8203 16.0777L42.8093 16.0782C42.7927 16.0818 42.7777 16.0848 42.7633 16.0877C42.7376 16.0929 42.7142 16.0976 42.689 16.1038L42.6873 16.1042L42.6704 16.1076Z" fill="black"/>
<path d="M45.5285 17.0467C45.5378 17.0883 45.5332 17.1359 45.5147 17.1745C45.4962 17.2161 45.4662 17.2458 45.4316 17.2576C45.3624 17.2814 45.2885 17.225 45.2677 17.1329C45.2377 16.9844 45.2169 16.8269 45.1985 16.6725C45.1662 16.4022 45.1315 16.123 45.03 15.8705C45.0115 15.8289 44.9723 15.8081 44.9353 15.8259C44.9192 15.8348 44.9076 15.8497 44.8984 15.8675C44.843 15.9774 44.7922 16.0932 44.7438 16.2032C44.6514 16.4111 44.5568 16.622 44.4414 16.8151C44.4045 16.8745 44.3629 16.9428 44.3052 16.9784C44.2429 17.02 44.1575 17.0022 44.109 16.9368C44.0975 16.922 44.0882 16.9042 44.079 16.8804C44.0629 16.8329 44.0536 16.7794 44.0467 16.72L44.0421 16.6873C44.0352 16.6517 44.0305 16.6131 44.0236 16.5774C44.0144 16.5091 44.0028 16.4408 43.9936 16.3725L43.9844 16.322C43.9775 16.2834 43.9705 16.2447 43.9636 16.2061C43.9567 16.1675 43.9336 16.1348 43.9036 16.1289C43.869 16.123 43.8367 16.1467 43.8228 16.1853C43.809 16.2239 43.7951 16.2655 43.7813 16.3041L43.7697 16.3398C43.7051 16.5358 43.6382 16.7349 43.5758 16.9309C43.5343 17.0586 43.4904 17.3141 43.3427 17.2606C43.3081 17.2487 43.2781 17.219 43.2619 17.1774C43.2458 17.1418 43.2365 17.0854 43.2481 17.0527C43.3127 16.8507 43.3796 16.6457 43.4466 16.4408L43.4743 16.3576C43.4951 16.2923 43.5181 16.2269 43.5389 16.1645C43.5458 16.1437 43.5551 16.12 43.562 16.0962C43.5805 16.0398 43.6012 15.9804 43.622 15.9239L43.6289 15.9061C43.6543 15.8437 43.6797 15.7814 43.7189 15.7338C43.7466 15.6982 43.7836 15.6744 43.8274 15.6596C43.8436 15.6536 43.869 15.6507 43.8944 15.6507C43.9221 15.6507 43.9498 15.6536 43.9728 15.6596C43.9936 15.6685 44.0282 15.6804 44.0513 15.6982C44.0675 15.7101 44.0836 15.7249 44.0975 15.7427L44.1044 15.7487C44.1206 15.7754 44.1367 15.7992 44.146 15.8259C44.1529 15.8437 44.1598 15.8645 44.1667 15.8853C44.1921 15.9625 44.2129 16.0487 44.229 16.1467C44.2429 16.2269 44.2567 16.3101 44.2683 16.3933L44.2798 16.4586C44.2821 16.4794 44.3006 16.4824 44.3098 16.4675L44.3375 16.4081C44.356 16.3695 44.3745 16.3309 44.3929 16.2923L44.4091 16.2566C44.4368 16.2002 44.4691 16.1348 44.4968 16.0695C44.513 16.0368 44.5268 16.0012 44.5406 15.9685C44.596 15.8408 44.6537 15.7101 44.7184 15.5883L44.7253 15.5734C44.7392 15.5497 44.753 15.5229 44.7668 15.5051C44.7784 15.4873 44.7922 15.4724 44.8084 15.4605L44.8107 15.4576C44.843 15.4308 44.8753 15.4101 44.9123 15.4011C44.9307 15.3952 44.9492 15.3922 44.9723 15.3952C44.9954 15.3982 45.0207 15.4071 45.0484 15.419C45.2192 15.5081 45.2977 15.7606 45.3508 15.9744C45.4039 16.1972 45.4316 16.4319 45.4662 16.6576C45.4962 16.8537 45.5193 17.0081 45.5285 17.0467Z" fill="black"/>
<path fill-rule="evenodd" clip-rule="evenodd" d="M45.6047 17.0298C45.6174 17.0871 45.6116 17.1521 45.5856 17.2072C45.5603 17.2635 45.5161 17.3112 45.4569 17.3315C45.3937 17.3532 45.331 17.3366 45.2841 17.3008C45.2379 17.2656 45.2054 17.2116 45.1915 17.1501L45.1913 17.1492L45.1911 17.1484C45.1605 16.9966 45.1394 16.8365 45.1209 16.6817C45.089 16.4149 45.0558 16.1509 44.9628 15.9131C44.9127 16.0135 44.8662 16.1189 44.8209 16.2217C44.819 16.226 44.8171 16.2303 44.8152 16.2347L44.8151 16.2348C44.723 16.4423 44.6266 16.6574 44.5084 16.8551L44.5077 16.8563C44.5059 16.8592 44.504 16.8622 44.502 16.8653C44.4685 16.9195 44.4192 16.9993 44.3473 17.0441C44.2466 17.1104 44.1168 17.0777 44.0468 16.9841C44.0292 16.9612 44.0168 16.936 44.0062 16.9087L44.0056 16.9071L44.005 16.9055C43.9863 16.8505 43.9764 16.791 43.9692 16.73L43.965 16.7002C43.9614 16.6816 43.9585 16.6625 43.9558 16.6451L43.9557 16.6444C43.9527 16.6255 43.9501 16.6084 43.9469 16.5923L43.9465 16.5901L43.9462 16.5879C43.9417 16.5545 43.9366 16.521 43.9314 16.4867L43.9313 16.4864C43.9263 16.453 43.9211 16.4189 43.9164 16.3847L43.9075 16.3358L43.8889 16.2323C43.8846 16.2447 43.8802 16.2574 43.8758 16.2702L43.8757 16.2705C43.869 16.29 43.8621 16.31 43.8551 16.3294L43.8438 16.3642C43.8265 16.4169 43.809 16.4696 43.7915 16.5224C43.7436 16.6668 43.6957 16.8114 43.6502 16.9546L43.65 16.9551C43.6441 16.9734 43.6385 16.9929 43.6322 17.015C43.6278 17.0306 43.623 17.0475 43.6174 17.0662C43.6049 17.1081 43.5895 17.155 43.5696 17.1971C43.5503 17.2379 43.5227 17.283 43.4813 17.3129C43.4347 17.3465 43.3774 17.356 43.3167 17.3343C43.2582 17.314 43.2133 17.2664 43.1899 17.2077C43.1787 17.1823 43.1708 17.1525 43.1671 17.1238C43.1636 17.0964 43.1628 17.0606 43.174 17.028C43.2386 16.8261 43.3055 16.6213 43.3723 16.4167L43.3725 16.4161L43.4 16.3335C43.4134 16.2911 43.4282 16.2479 43.4423 16.2065C43.4501 16.1836 43.4577 16.1613 43.4648 16.1399C43.4683 16.1295 43.4714 16.1206 43.4744 16.1123C43.4789 16.0995 43.483 16.0881 43.487 16.0744L43.4873 16.0732L43.4877 16.0719C43.5065 16.0145 43.5276 15.9542 43.5487 15.897L43.5492 15.8957L43.5566 15.8767C43.5572 15.875 43.5579 15.8733 43.5586 15.8717C43.5824 15.8132 43.6115 15.7417 43.658 15.685C43.6964 15.636 43.7465 15.6047 43.8015 15.5859C43.8302 15.5756 43.8659 15.5726 43.8943 15.5726C43.927 15.5726 43.9614 15.576 43.9923 15.584L43.9981 15.5855L44.0036 15.5878C44.0044 15.5882 44.0069 15.5892 44.0102 15.5906C44.0191 15.5941 44.0341 15.6003 44.043 15.6042C44.0588 15.6113 44.0795 15.6215 44.0982 15.6358C44.1171 15.6497 44.1364 15.6671 44.1538 15.6882L44.1647 15.6976L44.1712 15.7083C44.1732 15.7116 44.1754 15.7152 44.1778 15.7191C44.1907 15.7399 44.2084 15.7683 44.2192 15.7989C44.2266 15.8182 44.2339 15.84 44.2404 15.8596L44.2409 15.8609C44.2677 15.9425 44.2893 16.0325 44.306 16.1337C44.3126 16.1722 44.3193 16.2115 44.3257 16.2513L44.3384 16.2233L44.3389 16.2222C44.3402 16.2196 44.3415 16.2169 44.3429 16.2143C44.3698 16.1594 44.3994 16.0991 44.4249 16.039L44.4258 16.0369L44.4268 16.0349C44.4375 16.0132 44.4468 15.9908 44.4568 15.9665C44.4606 15.9573 44.4646 15.9478 44.4687 15.938L44.469 15.9374C44.5241 15.8104 44.5826 15.6778 44.6484 15.5535L44.656 15.5372L44.6578 15.5341C44.66 15.5304 44.6625 15.5259 44.6653 15.521C44.6755 15.5029 44.6894 15.4782 44.703 15.46C44.7169 15.4391 44.7334 15.4207 44.7527 15.4049L44.7543 15.4029L44.7609 15.3974C44.7962 15.3682 44.8385 15.3393 44.8911 15.326C44.9175 15.3178 44.9468 15.3132 44.9822 15.3178C45.0164 15.3222 45.0498 15.3346 45.0792 15.3472L45.0819 15.3484L45.0845 15.3497C45.192 15.4058 45.2638 15.5093 45.3144 15.6166C45.3654 15.725 45.3998 15.8478 45.4265 15.9556L45.4267 15.9563C45.4684 16.1311 45.4948 16.3139 45.5204 16.4901C45.528 16.5427 45.5355 16.5947 45.5434 16.6458C45.5472 16.6708 45.5509 16.695 45.5544 16.7182C45.5793 16.8808 45.5972 16.9985 45.6044 17.0286L45.6047 17.0298ZM44.9122 15.4011C44.8753 15.4101 44.843 15.4309 44.8107 15.4576L44.8084 15.4606C44.7922 15.4724 44.7783 15.4873 44.7668 15.5051C44.7564 15.5185 44.746 15.5369 44.7356 15.5552C44.7322 15.5614 44.7287 15.5675 44.7253 15.5734L44.7183 15.5883C44.6537 15.7101 44.596 15.8408 44.5406 15.9685C44.537 15.9769 44.5335 15.9855 44.5298 15.9943C44.5195 16.0194 44.5087 16.0452 44.4967 16.0695C44.4704 16.1316 44.4399 16.1937 44.4132 16.2482C44.4118 16.251 44.4104 16.2538 44.409 16.2566L44.3929 16.2923L44.3375 16.4081L44.3098 16.4675C44.3006 16.4824 44.2821 16.4794 44.2798 16.4586L44.2682 16.3933C44.2675 16.3878 44.2667 16.3823 44.2659 16.3768C44.2549 16.2991 44.2419 16.2216 44.229 16.1467C44.2128 16.0487 44.1921 15.9626 44.1667 15.8853C44.1598 15.8645 44.1528 15.8437 44.1459 15.8259C44.1383 15.8038 44.1259 15.7837 44.1127 15.7623C44.1099 15.7578 44.1072 15.7533 44.1044 15.7487L44.0974 15.7427C44.0836 15.7249 44.0674 15.7101 44.0513 15.6982C44.0328 15.6839 44.0068 15.6734 43.9866 15.6652C43.9816 15.6632 43.9769 15.6613 43.9728 15.6596C43.9497 15.6536 43.922 15.6507 43.8943 15.6507C43.8689 15.6507 43.8435 15.6536 43.8274 15.6596C43.7835 15.6744 43.7466 15.6982 43.7189 15.7338C43.6797 15.7814 43.6543 15.8437 43.6289 15.9061L43.622 15.9239C43.6012 15.9804 43.5804 16.0398 43.5619 16.0962C43.5575 16.1116 43.552 16.127 43.5468 16.1416C43.544 16.1495 43.5413 16.1572 43.5389 16.1645C43.5314 16.187 43.5236 16.2098 43.5158 16.2329C43.5018 16.2739 43.4875 16.3158 43.4742 16.3576L43.4465 16.4408C43.3796 16.6457 43.3127 16.8507 43.248 17.0527C43.2365 17.0854 43.2457 17.1418 43.2619 17.1774C43.278 17.219 43.308 17.2487 43.3427 17.2606C43.4681 17.306 43.5186 17.1287 43.5565 16.9959C43.5632 16.9724 43.5695 16.9502 43.5758 16.9309C43.6215 16.7872 43.6696 16.6419 43.7175 16.4974C43.735 16.4447 43.7524 16.3922 43.7697 16.3398L43.7812 16.3042C43.7881 16.2848 43.7951 16.2648 43.802 16.2447C43.8089 16.2247 43.8158 16.2046 43.8228 16.1853C43.8366 16.1467 43.8689 16.123 43.9035 16.1289C43.9336 16.1348 43.9566 16.1675 43.9636 16.2061L43.9843 16.322L43.9936 16.3725C43.9982 16.4066 44.0034 16.4408 44.0086 16.4749C44.0138 16.5091 44.019 16.5433 44.0236 16.5774C44.027 16.5953 44.0299 16.6138 44.0328 16.6324C44.0357 16.6509 44.0386 16.6695 44.042 16.6873L44.0467 16.72C44.0536 16.7794 44.0628 16.8329 44.079 16.8804C44.0882 16.9042 44.0974 16.922 44.109 16.9368C44.1574 17.0022 44.2428 17.02 44.3052 16.9784C44.3615 16.9437 44.4024 16.8778 44.4386 16.8195C44.4395 16.818 44.4404 16.8165 44.4414 16.8151C44.5568 16.622 44.6514 16.4111 44.7437 16.2032C44.7457 16.1986 44.7477 16.1941 44.7497 16.1895C44.7964 16.0837 44.8453 15.9729 44.8984 15.8675C44.9076 15.8497 44.9191 15.8348 44.9353 15.8259C44.9722 15.8081 45.0115 15.8289 45.0299 15.8705C45.1315 16.123 45.1661 16.4022 45.1984 16.6725C45.2169 16.8269 45.2377 16.9844 45.2677 17.1329C45.2884 17.225 45.3623 17.2814 45.4316 17.2577C45.4662 17.2458 45.4962 17.2161 45.5146 17.1745C45.5331 17.1359 45.5377 17.0883 45.5285 17.0468C45.5205 17.0132 45.502 16.892 45.4775 16.732C45.4739 16.7081 45.4701 16.6832 45.4662 16.6576C45.4581 16.6051 45.4504 16.5521 45.4427 16.4989C45.4173 16.3234 45.3915 16.1454 45.3508 15.9744C45.2977 15.7606 45.2192 15.5081 45.0484 15.419C45.0207 15.4071 44.9953 15.3982 44.9722 15.3952C44.9491 15.3922 44.9307 15.3952 44.9122 15.4011Z" fill="black"/>
</svg>
